<svg width="108" height="39" viewBox="0 0 108 39" fill="none" xmlns="http://www.w3.org/2000/svg">
<g clip-path="url(#clip0_2_3821)">
<path fill-rule="evenodd" clip-rule="evenodd" d="M49.012 24.612V32.9392H45.4782V3.08008H49.012V17.1506C50.2717 15.8784 51.6598 15.2422 53.1763 15.2422C54.9066 15.2422 56.2897 15.8731 57.3256 17.1348C58.2066 18.2302 58.647 19.98 58.647 22.384V32.9392H55.1089V22.7557C55.1089 21.3754 54.8937 20.3782 54.4633 19.7594C54.0329 19.1406 53.3291 18.8324 52.3671 18.8324C51.1304 18.8324 50.2609 19.2623 49.7588 20.122C49.2566 20.9818 49.0077 22.4785 49.012 24.612ZM41.019 19.433V32.9392H37.483V19.433H35.9766V15.7205H37.483V9.41047H41.019V15.7205H43.7694V19.433H41.019ZM65.3186 32.9392V24.0091C65.3186 20.7348 66.2828 19.0968 68.2111 19.0953C68.851 19.0953 69.5052 19.3658 70.1738 19.9067L71.7922 16.2667C70.7764 15.5822 69.8029 15.24 68.8718 15.24C68.2368 15.2263 67.609 15.3823 67.0468 15.6933C66.3944 16.1139 65.8126 16.6454 65.3251 17.2662V15.7295H61.7827V32.9551L65.3186 32.9392ZM76.3612 10.41C76.1596 10.6524 75.9106 10.8458 75.6312 10.9769C75.3517 11.108 75.0486 11.1736 74.7428 11.1693C74.4345 11.1727 74.1291 11.1067 73.8471 10.9757C73.565 10.8448 73.3127 10.6519 73.1071 10.41C72.6593 9.90863 72.4166 9.24191 72.4314 8.55372C72.4206 7.87908 72.6635 7.22732 73.1071 6.74051C73.3131 6.50154 73.5643 6.31059 73.8445 6.17991C74.1247 6.04924 74.4277 5.98173 74.7341 5.98173C75.0406 5.98173 75.3436 6.04924 75.6238 6.17991C75.904 6.31059 76.1552 6.50154 76.3612 6.74051C76.5814 6.98103 76.7543 7.26507 76.8699 7.57626C76.9855 7.88744 77.0416 8.21964 77.0348 8.55372C77.0527 9.24206 76.8105 9.90974 76.3612 10.41ZM76.5032 32.9324V15.7069H72.9673V32.9324H76.5032ZM93.421 15.7069L85.4689 34.111L77.5814 15.7069H81.5478L85.5077 25.3781L89.4504 15.7069H93.421ZM100.771 33.4197C101.517 33.4258 102.261 33.3306 102.985 33.1364C103.662 32.952 104.305 32.6502 104.888 32.2434C105.504 31.8092 106.06 31.2858 106.538 30.6886C107.098 29.9877 107.587 29.2282 108 28.422L105.006 26.5567C104.289 27.8305 103.643 28.7023 103.069 29.1722C102.439 29.6638 101.668 29.9141 100.885 29.8817C100.366 29.8958 99.851 29.7925 99.3738 29.5786C98.8967 29.3646 98.4688 29.0452 98.1191 28.6419C97.4017 27.8063 96.9928 26.6813 96.8924 25.267H107.868L107.883 24.3287C107.883 21.4895 107.234 19.2683 105.936 17.6651C104.637 16.0619 102.856 15.2543 100.592 15.2422C98.3594 15.2422 96.566 16.0733 95.2116 17.7354C93.8701 19.4217 93.1994 21.6255 93.1994 24.3468C93.1994 27.0939 93.8909 29.2977 95.274 30.9583C96.6571 32.6189 98.4907 33.4439 100.775 33.4333L100.771 33.4197ZM97.1248 21.9987H104.227C103.736 19.8833 102.547 18.8256 100.661 18.8256C100.247 18.8244 99.8369 18.9012 99.4491 19.0522C99.0735 19.1995 98.7253 19.4151 98.4204 19.6891C98.1063 19.9736 97.8387 20.3105 97.6284 20.6864C97.398 21.0991 97.2282 21.5461 97.1248 22.0123V21.9987Z" fill="#00C3CD"/>
<path fill-rule="evenodd" clip-rule="evenodd" d="M13.3265 0C13.4316 0.00158841 13.5328 0.0426463 13.6117 0.11578C13.6906 0.188913 13.7421 0.289317 13.757 0.398908V0.487302V38.515C13.761 38.6396 13.718 38.7609 13.6374 38.8523C13.5567 38.9436 13.4449 38.9975 13.3265 39.0023C13.2211 39.0006 13.1197 38.9592 13.0408 38.8856C12.9618 38.812 12.9105 38.7111 12.8961 38.6011V38.515V0.487302C12.8938 0.425494 12.9031 0.363818 12.9236 0.305821C12.944 0.247823 12.9751 0.194649 13.0151 0.149359C13.0551 0.10407 13.1032 0.0675597 13.1567 0.0419266C13.2101 0.0162935 13.2678 0.00204419 13.3265 0ZM15.9091 6.82449C16.0148 6.82368 16.1172 6.86391 16.1966 6.93748C16.2759 7.01106 16.3268 7.11283 16.3395 7.2234V7.31179V32.6628C16.3418 32.7246 16.3325 32.7863 16.3121 32.8443C16.2917 32.9023 16.2606 32.9555 16.2206 33.0007C16.1805 33.046 16.1324 33.0825 16.079 33.1082C16.0255 33.1338 15.9678 33.1481 15.9091 33.1501C15.803 33.1508 15.7004 33.1103 15.621 33.0363C15.5415 32.9622 15.4909 32.8599 15.4787 32.7489V32.6628V7.31179C15.4745 7.18972 15.5154 7.07069 15.5929 6.97979C15.6704 6.8889 15.7783 6.83322 15.894 6.82449H15.9091ZM18.907 13.0733C18.8943 12.9627 18.8434 12.8609 18.764 12.7874C18.6846 12.7138 18.5823 12.6736 18.4766 12.6744C18.4179 12.6764 18.3601 12.6907 18.3067 12.7163C18.2532 12.7419 18.2051 12.7784 18.1651 12.8237C18.1251 12.869 18.094 12.9222 18.0736 12.9802C18.0532 13.0382 18.0438 13.0999 18.0461 13.1617V32.6537V32.7421C18.0583 32.8531 18.109 32.9554 18.1885 33.0295C18.2679 33.1035 18.3705 33.144 18.4766 33.1433C18.5951 33.138 18.7069 33.0836 18.7875 32.9919C18.8681 32.9002 18.9111 32.7786 18.907 32.6537V13.1617V13.0733ZM21.0591 20.4735C21.1652 20.4727 21.2678 20.5133 21.3472 20.5873C21.4267 20.6613 21.4774 20.7637 21.4895 20.8746V20.963V32.6628C21.4936 32.7875 21.4506 32.9088 21.3699 33.0001C21.2893 33.0914 21.1775 33.1454 21.0591 33.1501C20.9537 33.1484 20.8523 33.1071 20.7734 33.0335C20.6944 32.9599 20.6431 32.8589 20.6287 32.7489V32.6628V20.963C20.6245 20.84 20.666 20.7201 20.7443 20.6287C20.8227 20.5373 20.9317 20.4816 21.0484 20.4735H21.0591ZM24.0484 26.7291C24.0336 26.6195 23.982 26.5191 23.9031 26.4459C23.8242 26.3728 23.7231 26.3317 23.618 26.3302C23.5595 26.3322 23.5019 26.3464 23.4486 26.3719C23.3953 26.3974 23.3473 26.4337 23.3073 26.4787C23.2673 26.5238 23.2362 26.5767 23.2156 26.6344C23.1951 26.6921 23.1856 26.7536 23.1876 26.8152V32.6673V32.7535C23.1998 32.8644 23.2504 32.9668 23.3299 33.0408C23.4093 33.1148 23.5119 33.1554 23.618 33.1546C23.7362 33.1493 23.8476 33.0952 23.9282 33.004C24.0087 32.9128 24.0519 32.7919 24.0484 32.6673V26.8129V26.7291ZM26.2005 30.2286C26.3066 30.2278 26.4092 30.2684 26.4887 30.3424C26.5681 30.4164 26.6188 30.5188 26.631 30.6297V30.7159V32.6651C26.6333 32.727 26.624 32.7888 26.6036 32.8469C26.5832 32.905 26.5521 32.9584 26.5121 33.0038C26.4722 33.0493 26.4241 33.086 26.3706 33.1119C26.3171 33.1378 26.2593 33.1523 26.2005 33.1546C26.0945 33.1554 25.9919 33.1148 25.9124 33.0408C25.833 32.9668 25.7823 32.8644 25.7701 32.7535V32.6651V30.7159C25.7675 30.6536 25.7767 30.5914 25.7971 30.5328C25.8175 30.4743 25.8487 30.4206 25.8889 30.3749C25.9292 30.3291 25.9776 30.2922 26.0315 30.2663C26.0853 30.2404 26.1435 30.2261 26.2027 30.224L26.2005 30.2286ZM11.1615 7.2234C11.1488 7.11283 11.0979 7.01106 11.0185 6.93748C10.9392 6.86391 10.8368 6.82368 10.7311 6.82449C10.6724 6.82653 10.6146 6.84078 10.5612 6.86641C10.5077 6.89205 10.4596 6.92856 10.4196 6.97385C10.3796 7.01914 10.3485 7.07231 10.3281 7.13031C10.3077 7.18831 10.2984 7.24998 10.3007 7.31179V32.6628V32.7489C10.315 32.8589 10.3664 32.9599 10.4453 33.0335C10.5243 33.1071 10.6257 33.1484 10.7311 33.1501C10.7898 33.1481 10.8475 33.1338 10.901 33.1082C10.9544 33.0825 11.0025 33.046 11.0425 33.0007C11.0825 32.9555 11.1137 32.9023 11.1341 32.8443C11.1545 32.7863 11.1638 32.7246 11.1615 32.6628V7.31179V7.2234ZM8.16145 12.6766C8.26655 12.6782 8.36767 12.7193 8.44658 12.7924C8.52549 12.8656 8.57701 12.966 8.59187 13.0755V13.1639V32.656C8.59595 32.7809 8.55301 32.9024 8.47239 32.9941C8.39177 33.0858 8.28 33.1403 8.16145 33.1456C8.05537 33.1463 7.95277 33.1058 7.87334 33.0317C7.7939 32.9577 7.74322 32.8554 7.73102 32.7444V32.656V13.1639C7.72695 13.0393 7.76997 12.918 7.85064 12.8266C7.93132 12.7353 8.04308 12.6814 8.16145 12.6766ZM6.00932 20.8769C5.99713 20.7659 5.94645 20.6636 5.86701 20.5896C5.78757 20.5155 5.68498 20.475 5.5789 20.4757C5.46034 20.481 5.34858 20.5355 5.26796 20.6272C5.18734 20.7189 5.14439 20.8404 5.14848 20.9653V32.6651V32.7512C5.16286 32.8612 5.21419 32.9621 5.29314 33.0357C5.3721 33.1093 5.47347 33.1507 5.5789 33.1524C5.69727 33.1476 5.80903 33.0937 5.88971 33.0024C5.97038 32.911 6.0134 32.7897 6.00932 32.6651V20.963V20.8769ZM3.00926 26.3279C3.11437 26.3295 3.21548 26.3705 3.29439 26.4437C3.37331 26.5168 3.42483 26.6172 3.43969 26.7268V26.8152V32.6651C3.44376 32.7897 3.40075 32.911 3.32007 33.0024C3.23939 33.0937 3.12763 33.1476 3.00926 33.1524C2.90319 33.1531 2.80059 33.1126 2.72115 33.0385C2.64172 32.9645 2.59104 32.8622 2.57884 32.7512V32.6651V26.8107C2.57477 26.6866 2.61755 26.5659 2.69783 26.475C2.7781 26.384 2.88932 26.3303 3.00711 26.3256L3.00926 26.3279ZM0.857141 30.6343C0.844944 30.5233 0.794266 30.421 0.714829 30.3469C0.635392 30.2729 0.532792 30.2324 0.426716 30.2331C0.308545 30.2384 0.197115 30.2925 0.116555 30.3837C0.035995 30.4749 -0.00721177 30.5959 -0.00370872 30.7204V32.6696V32.758C0.00848792 32.869 0.0591679 32.9713 0.138605 33.0453C0.218042 33.1194 0.32064 33.1599 0.426716 33.1592C0.545272 33.1539 0.657034 33.0994 0.737655 33.0077C0.818276 32.916 0.861222 32.7945 0.857141 32.6696V30.7204V30.6343Z" fill="#00C3CD"/>
</g>
<defs>
<clipPath id="clip0_2_3821">
<rect width="108" height="39" fill="white"/>
</clipPath>
</defs>
</svg>
